<!-- icon666.com - MILLIONS vector ICONS FREE --><svg viewBox="0 0 64 64" xmlns="http://www.w3.org/2000/svg"><g id="left-arrow-direction-button-previous"><circle cx="32" cy="32" fill="#006df0" r="29"></circle><path d="m32 3a29 29 0 0 0 -20.506 49.506l41.012-41.012a28.909 28.909 0 0 0 -20.506-8.494z" fill="#2488ff"></path><path d="m20.272 32 13.082-13.081a2.5 2.5 0 0 0 -3.536-3.536l-15.91 15.91a1 1 0 0 0 0 1.414l15.91 15.91a2.5 2.5 0 1 0 3.536-3.536z" fill="#ffcd00"></path><path d="m46.081 15.383a2.5 2.5 0 0 0 -3.535 0l-15.91 15.91a1 1 0 0 0 0 1.414l15.91 15.91a2.5 2.5 0 1 0 3.535-3.536l-13.081-13.081 13.081-13.081a2.5 2.5 0 0 0 0-3.536z" fill="#ffcd00"></path><g fill="#231f20"><path d="m31.586 50.349a3.474 3.474 0 0 1 -2.475-1.025l-15.911-15.91a2 2 0 0 1 0-2.828l15.91-15.91a3.587 3.587 0 0 1 4.95 0 3.5 3.5 0 0 1 0 4.951l-12.373 12.373 12.374 12.375a3.5 3.5 0 0 1 0 4.949 3.482 3.482 0 0 1 -2.475 1.025zm0-34.698a1.493 1.493 0 0 0 -1.061.439l-15.91 15.91 15.91 15.91a1.536 1.536 0 0 0 2.121 0 1.5 1.5 0 0 0 0-2.121l-13.081-13.082a1 1 0 0 1 0-1.414l13.081-13.082a1.5 1.5 0 0 0 -1.06-2.56z"></path><path d="m44.313 50.349a3.48 3.48 0 0 1 -2.474-1.024l-15.91-15.911a2 2 0 0 1 0-2.828l15.91-15.91a3.584 3.584 0 0 1 4.949 0 3.5 3.5 0 0 1 0 4.95l-12.374 12.374 12.374 12.375a3.5 3.5 0 0 1 0 4.949 3.474 3.474 0 0 1 -2.475 1.025zm0-34.7a1.49 1.49 0 0 0 -1.06.439l-15.91 15.912 15.91 15.91a1.534 1.534 0 0 0 2.121 0 1.5 1.5 0 0 0 0-2.121l-13.081-13.082a1 1 0 0 1 0-1.414l13.081-13.082a1.5 1.5 0 0 0 -1.061-2.56z"></path><path d="m32 62a30 30 0 1 1 30-30 30.034 30.034 0 0 1 -30 30zm0-58a28 28 0 1 0 28 28 28.032 28.032 0 0 0 -28-28z"></path><path d="m30 8.079a1 1 0 0 1 -.078-2c.688-.051 1.388-.079 2.078-.079a1 1 0 0 1 0 2c-.638 0-1.284.025-1.921.076z"></path><path d="m7 33a1 1 0 0 1 -1-1 25.953 25.953 0 0 1 19.76-25.243 1 1 0 1 1 .48 1.943 23.959 23.959 0 0 0 -18.24 23.3 1 1 0 0 1 -1 1z"></path></g></g></svg>