<!-- icon666.com - MILLIONS vector ICONS FREE --><svg viewBox="0 0 48 48" xmlns="http://www.w3.org/2000/svg"><g id="BIRU"><path d="m35.71 35.29a5.25 5.25 0 0 1 .16 7.24 1.29 1.29 0 0 1 -.16.18 5.26 5.26 0 0 1 -7.42 0l-18-18a1 1 0 0 1 0-1.42l18-18a5.26 5.26 0 0 1 7.42 0 1.29 1.29 0 0 1 .16.18 5.25 5.25 0 0 1 -.16 7.24l-11.3 11.29z" fill="#7dbdc3"></path><path d="m35.71 35.29a5.25 5.25 0 0 1 .16 7.24l-17.82-17.82a1 1 0 0 1 0-1.42l17.82-17.82a5.25 5.25 0 0 1 -.16 7.24l-11.3 11.29z" fill="#3a9ca6"></path></g></svg>